<?xml version="1.0" encoding="UTF-8" standalone="no"?><svg xmlns="http://www.w3.org/2000/svg" xmlns:xlink="http://www.w3.org/1999/xlink" contentStyleType="text/css" height="376px" preserveAspectRatio="none" style="width:189px;height:376px;background:#FFFFFF;" version="1.1" viewBox="0 0 189 376" width="189px" zoomAndPan="magnify"><defs/><g><!--MD5=[7fd4401f5c5cb0e3d029c879cad30c04]
class Animal--><g id="elem_Animal"><rect fill="#F1F1F1" height="80.5938" id="Animal" rx="2.5" ry="2.5" style="stroke:#181818;stroke-width:0.5;" width="81" x="59" y="7"/><ellipse cx="74" cy="23" fill="#ADD1B2" rx="11" ry="11" style="stroke:#181818;stroke-width:1.0;"/><path d="M76.3438,18.6719 C75.4063,18.2344 74.8125,18.0938 73.9375,18.0938 C71.3125,18.0938 69.3125,20.1719 69.3125,22.8906 L69.3125,24.0156 C69.3125,26.5938 71.4219,28.4844 74.3125,28.4844 C75.5313,28.4844 76.6875,28.1875 77.4375,27.6406 C78.0156,27.2344 78.3438,26.7813 78.3438,26.3906 C78.3438,25.9375 77.9531,25.5469 77.4844,25.5469 C77.2656,25.5469 77.0625,25.625 76.875,25.8125 C76.4219,26.2969 76.4219,26.2969 76.2344,26.3906 C75.8125,26.6563 75.125,26.7813 74.3594,26.7813 C72.3125,26.7813 71.0156,25.6875 71.0156,23.9844 L71.0156,22.8906 C71.0156,21.1094 72.2656,19.7969 74,19.7969 C74.5781,19.7969 75.1875,19.9531 75.6563,20.2031 C76.1406,20.4844 76.3125,20.7031 76.4063,21.1094 C76.4688,21.5156 76.5,21.6406 76.6406,21.7656 C76.7813,21.9063 77.0156,22.0156 77.2344,22.0156 C77.5,22.0156 77.7656,21.875 77.9375,21.6563 C78.0469,21.5 78.0781,21.3125 78.0781,20.8906 L78.0781,19.4688 C78.0781,19.0313 78.0625,18.9063 77.9688,18.75 C77.8125,18.4844 77.5313,18.3438 77.2344,18.3438 C76.9375,18.3438 76.7344,18.4375 76.5156,18.75 L76.3438,18.6719 Z " fill="#000000"/><text fill="#000000" font-family="sans-serif" font-size="14" lengthAdjust="spacing" textLength="49" x="88" y="27.8467">Animal</text><line style="stroke:#181818;stroke-width:0.5;" x1="60" x2="139" y1="39" y2="39"/><line style="stroke:#181818;stroke-width:0.5;" x1="60" x2="139" y1="47" y2="47"/><text fill="#000000" font-family="sans-serif" font-size="14" lengthAdjust="spacing" textLength="33" x="65" y="63.9951">run()</text><text fill="#000000" font-family="sans-serif" font-size="14" lengthAdjust="spacing" textLength="46" x="65" y="80.292">jump()</text></g><!--MD5=[454ed48f055567edc734f170f61b4daf]
class Dog--><g id="elem_Dog"><rect fill="#F1F1F1" height="96.8906" id="Dog" rx="2.5" ry="2.5" style="stroke:#181818;stroke-width:0.5;" width="65" x="17" y="148"/><ellipse cx="33.8" cy="164" fill="#ADD1B2" rx="11" ry="11" style="stroke:#181818;stroke-width:1.0;"/><path d="M36.1438,159.6719 C35.2063,159.2344 34.6125,159.0938 33.7375,159.0938 C31.1125,159.0938 29.1125,161.1719 29.1125,163.8906 L29.1125,165.0156 C29.1125,167.5938 31.2219,169.4844 34.1125,169.4844 C35.3313,169.4844 36.4875,169.1875 37.2375,168.6406 C37.8156,168.2344 38.1438,167.7813 38.1438,167.3906 C38.1438,166.9375 37.7531,166.5469 37.2844,166.5469 C37.0656,166.5469 36.8625,166.625 36.675,166.8125 C36.2219,167.2969 36.2219,167.2969 36.0344,167.3906 C35.6125,167.6563 34.925,167.7813 34.1594,167.7813 C32.1125,167.7813 30.8156,166.6875 30.8156,164.9844 L30.8156,163.8906 C30.8156,162.1094 32.0656,160.7969 33.8,160.7969 C34.3781,160.7969 34.9875,160.9531 35.4563,161.2031 C35.9406,161.4844 36.1125,161.7031 36.2063,162.1094 C36.2688,162.5156 36.3,162.6406 36.4406,162.7656 C36.5813,162.9063 36.8156,163.0156 37.0344,163.0156 C37.3,163.0156 37.5656,162.875 37.7375,162.6563 C37.8469,162.5 37.8781,162.3125 37.8781,161.8906 L37.8781,160.4688 C37.8781,160.0313 37.8625,159.9063 37.7688,159.75 C37.6125,159.4844 37.3313,159.3438 37.0344,159.3438 C36.7375,159.3438 36.5344,159.4375 36.3156,159.75 L36.1438,159.6719 Z " fill="#000000"/><text fill="#000000" font-family="sans-serif" font-size="14" lengthAdjust="spacing" textLength="29" x="48.2" y="168.8467">Dog</text><line style="stroke:#181818;stroke-width:0.5;" x1="18" x2="81" y1="180" y2="180"/><line style="stroke:#181818;stroke-width:0.5;" x1="18" x2="81" y1="188" y2="188"/><text fill="#000000" font-family="sans-serif" font-size="14" lengthAdjust="spacing" textLength="53" x="23" y="204.9951">speak()</text><text fill="#000000" font-family="sans-serif" font-size="14" lengthAdjust="spacing" textLength="46" x="23" y="221.292">swim()</text><text fill="#000000" font-family="sans-serif" font-size="14" lengthAdjust="spacing" textLength="49" x="23" y="237.5889">fetch()</text></g><!--MD5=[a2e111f229e751eaf74a5b0151226526]
class Bulldog--><g id="elem_Bulldog"><rect fill="#F1F1F1" height="64.2969" id="Bulldog" rx="2.5" ry="2.5" style="stroke:#181818;stroke-width:0.5;" width="85" x="7" y="305"/><ellipse cx="22" cy="321" fill="#ADD1B2" rx="11" ry="11" style="stroke:#181818;stroke-width:1.0;"/><path d="M24.3438,316.6719 C23.4063,316.2344 22.8125,316.0938 21.9375,316.0938 C19.3125,316.0938 17.3125,318.1719 17.3125,320.8906 L17.3125,322.0156 C17.3125,324.5938 19.4219,326.4844 22.3125,326.4844 C23.5313,326.4844 24.6875,326.1875 25.4375,325.6406 C26.0156,325.2344 26.3438,324.7813 26.3438,324.3906 C26.3438,323.9375 25.9531,323.5469 25.4844,323.5469 C25.2656,323.5469 25.0625,323.625 24.875,323.8125 C24.4219,324.2969 24.4219,324.2969 24.2344,324.3906 C23.8125,324.6563 23.125,324.7813 22.3594,324.7813 C20.3125,324.7813 19.0156,323.6875 19.0156,321.9844 L19.0156,320.8906 C19.0156,319.1094 20.2656,317.7969 22,317.7969 C22.5781,317.7969 23.1875,317.9531 23.6563,318.2031 C24.1406,318.4844 24.3125,318.7031 24.4063,319.1094 C24.4688,319.5156 24.5,319.6406 24.6406,319.7656 C24.7813,319.9063 25.0156,320.0156 25.2344,320.0156 C25.5,320.0156 25.7656,319.875 25.9375,319.6563 C26.0469,319.5 26.0781,319.3125 26.0781,318.8906 L26.0781,317.4688 C26.0781,317.0313 26.0625,316.9063 25.9688,316.75 C25.8125,316.4844 25.5313,316.3438 25.2344,316.3438 C24.9375,316.3438 24.7344,316.4375 24.5156,316.75 L24.3438,316.6719 Z " fill="#000000"/><text fill="#000000" font-family="sans-serif" font-size="14" lengthAdjust="spacing" textLength="53" x="36" y="325.8467">Bulldog</text><line style="stroke:#181818;stroke-width:0.5;" x1="8" x2="91" y1="337" y2="337"/><line style="stroke:#181818;stroke-width:0.5;" x1="8" x2="91" y1="345" y2="345"/><text fill="#000000" font-family="sans-serif" font-size="14" lengthAdjust="spacing" textLength="46" x="13" y="361.9951">swim()</text></g><!--MD5=[8d10b9619f233caeee54837354dd5717]
class Cat--><g id="elem_Cat"><rect fill="#F1F1F1" height="64.2969" id="Cat" rx="2.5" ry="2.5" style="stroke:#181818;stroke-width:0.5;" width="65" x="117" y="164.5"/><ellipse cx="135.6" cy="180.5" fill="#ADD1B2" rx="11" ry="11" style="stroke:#181818;stroke-width:1.0;"/><path d="M137.9438,176.1719 C137.0063,175.7344 136.4125,175.5938 135.5375,175.5938 C132.9125,175.5938 130.9125,177.6719 130.9125,180.3906 L130.9125,181.5156 C130.9125,184.0938 133.0219,185.9844 135.9125,185.9844 C137.1313,185.9844 138.2875,185.6875 139.0375,185.1406 C139.6156,184.7344 139.9438,184.2813 139.9438,183.8906 C139.9438,183.4375 139.5531,183.0469 139.0844,183.0469 C138.8656,183.0469 138.6625,183.125 138.475,183.3125 C138.0219,183.7969 138.0219,183.7969 137.8344,183.8906 C137.4125,184.1563 136.725,184.2813 135.9594,184.2813 C133.9125,184.2813 132.6156,183.1875 132.6156,181.4844 L132.6156,180.3906 C132.6156,178.6094 133.8656,177.2969 135.6,177.2969 C136.1781,177.2969 136.7875,177.4531 137.2563,177.7031 C137.7406,177.9844 137.9125,178.2031 138.0063,178.6094 C138.0688,179.0156 138.1,179.1406 138.2406,179.2656 C138.3813,179.4063 138.6156,179.5156 138.8344,179.5156 C139.1,179.5156 139.3656,179.375 139.5375,179.1563 C139.6469,179 139.6781,178.8125 139.6781,178.3906 L139.6781,176.9688 C139.6781,176.5313 139.6625,176.4063 139.5688,176.25 C139.4125,175.9844 139.1313,175.8438 138.8344,175.8438 C138.5375,175.8438 138.3344,175.9375 138.1156,176.25 L137.9438,176.1719 Z " fill="#000000"/><text fill="#000000" font-family="sans-serif" font-size="14" lengthAdjust="spacing" textLength="25" x="150.4" y="185.3467">Cat</text><line style="stroke:#181818;stroke-width:0.5;" x1="118" x2="181" y1="196.5" y2="196.5"/><line style="stroke:#181818;stroke-width:0.5;" x1="118" x2="181" y1="204.5" y2="204.5"/><text fill="#000000" font-family="sans-serif" font-size="14" lengthAdjust="spacing" textLength="53" x="123" y="221.4951">speak()</text></g><!--MD5=[5037e5108ae860e34ac250b7d2b84c09]
reverse link Animal to Dog--><g id="link_Animal_Dog"><path codeLine="4" d="M79.5015,107.296 C74.9213,120.761 70.1077,134.913 65.7098,147.843 " fill="none" id="Animal-backto-Dog" style="stroke:#181818;stroke-width:1.0;"/><polygon fill="none" points="72.9017,104.961,85.9693,88.28,86.156,109.469,72.9017,104.961" style="stroke:#181818;stroke-width:1.0;"/></g><!--MD5=[8636451d242e0659c6889b97a0f8ce8a]
reverse link Dog to Bulldog--><g id="link_Dog_Bulldog"><path codeLine="10" d="M49.5,265.637 C49.5,279.3395 49.5,293.1001 49.5,304.7722 " fill="none" id="Dog-backto-Bulldog" style="stroke:#181818;stroke-width:1.0;"/><polygon fill="none" points="42.5001,265.164,49.5,245.164,56.5001,265.164,42.5001,265.164" style="stroke:#181818;stroke-width:1.0;"/></g><!--MD5=[29afdbb58cca2b953b6b88505d3bed3f]
reverse link Animal to Cat--><g id="link_Animal_Cat"><path codeLine="14" d="M119.519,107.356 C126.113,126.743 133.189,147.547 138.81,164.072 " fill="none" id="Animal-backto-Cat" style="stroke:#181818;stroke-width:1.0;"/><polygon fill="none" points="112.844,109.469,113.031,88.28,126.098,104.961,112.844,109.469" style="stroke:#181818;stroke-width:1.0;"/></g><!--MD5=[215e6220be3ddc741463d895a3ca4523]
@startuml
Animal : run()
  Animal : jump()

  Animal <|- - Dog

  Dog : speak()
  Dog : swim()
  Dog : fetch()

  Dog <|- - Bulldog

  Bulldog : swim()

  Animal <|- - Cat

  Cat : speak()
@enduml

PlantUML version 1.2022.4beta2(Unknown compile time)
(GPL source distribution)
Java Runtime: Java(TM) SE Runtime Environment
JVM: Java HotSpot(TM) 64-Bit Server VM
Default Encoding: UTF-8
Language: en
Country: US
--></g></svg>