<?xml version="1.0" encoding="UTF-8" standalone="no"?><svg xmlns="http://www.w3.org/2000/svg" xmlns:xlink="http://www.w3.org/1999/xlink" contentStyleType="text/css" height="376px" preserveAspectRatio="none" style="width:187px;height:376px;background:#FFFFFF;" version="1.1" viewBox="0 0 187 376" width="187px" zoomAndPan="magnify"><defs/><g><!--MD5=[7fd4401f5c5cb0e3d029c879cad30c04]
class Animal--><g id="elem_Animal"><rect fill="#F1F1F1" height="80.5938" id="Animal" rx="2.5" ry="2.5" style="stroke:#181818;stroke-width:0.5;" width="77" x="59.5" y="7"/><ellipse cx="74.5" cy="23" fill="#ADD1B2" rx="11" ry="11" style="stroke:#181818;stroke-width:1.0;"/><path d="M77.4688,28.6406 Q76.8906,28.9375 76.25,29.0781 Q75.6094,29.2344 74.9063,29.2344 Q72.4063,29.2344 71.0781,27.5938 Q69.7656,25.9375 69.7656,22.8125 Q69.7656,19.6875 71.0781,18.0313 Q72.4063,16.375 74.9063,16.375 Q75.6094,16.375 76.25,16.5313 Q76.9063,16.6875 77.4688,16.9844 L77.4688,19.7031 Q76.8438,19.125 76.25,18.8594 Q75.6563,18.5781 75.0313,18.5781 Q73.6875,18.5781 73,19.6563 Q72.3125,20.7188 72.3125,22.8125 Q72.3125,24.9063 73,25.9844 Q73.6875,27.0469 75.0313,27.0469 Q75.6563,27.0469 76.25,26.7813 Q76.8438,26.5 77.4688,25.9219 L77.4688,28.6406 Z " fill="#000000"/><text fill="#000000" font-family="sans-serif" font-size="14" lengthAdjust="spacing" textLength="45" x="88.5" y="27.8467">Animal</text><line style="stroke:#181818;stroke-width:0.5;" x1="60.5" x2="135.5" y1="39" y2="39"/><line style="stroke:#181818;stroke-width:0.5;" x1="60.5" x2="135.5" y1="47" y2="47"/><text fill="#000000" font-family="sans-serif" font-size="14" lengthAdjust="spacing" textLength="33" x="65.5" y="63.9951">run()</text><text fill="#000000" font-family="sans-serif" font-size="14" lengthAdjust="spacing" textLength="44" x="65.5" y="80.292">jump()</text></g><!--MD5=[454ed48f055567edc734f170f61b4daf]
class Dog--><g id="elem_Dog"><rect fill="#F1F1F1" height="96.8906" id="Dog" rx="2.5" ry="2.5" style="stroke:#181818;stroke-width:0.5;" width="64" x="17" y="148"/><ellipse cx="33.35" cy="164" fill="#ADD1B2" rx="11" ry="11" style="stroke:#181818;stroke-width:1.0;"/><path d="M36.3188,169.6406 Q35.7406,169.9375 35.1,170.0781 Q34.4594,170.2344 33.7563,170.2344 Q31.2563,170.2344 29.9281,168.5938 Q28.6156,166.9375 28.6156,163.8125 Q28.6156,160.6875 29.9281,159.0313 Q31.2563,157.375 33.7563,157.375 Q34.4594,157.375 35.1,157.5313 Q35.7563,157.6875 36.3188,157.9844 L36.3188,160.7031 Q35.6938,160.125 35.1,159.8594 Q34.5063,159.5781 33.8813,159.5781 Q32.5375,159.5781 31.85,160.6563 Q31.1625,161.7188 31.1625,163.8125 Q31.1625,165.9063 31.85,166.9844 Q32.5375,168.0469 33.8813,168.0469 Q34.5063,168.0469 35.1,167.7813 Q35.6938,167.5 36.3188,166.9219 L36.3188,169.6406 Z " fill="#000000"/><text fill="#000000" font-family="sans-serif" font-size="14" lengthAdjust="spacing" textLength="29" x="47.65" y="168.8467">Dog</text><line style="stroke:#181818;stroke-width:0.5;" x1="18" x2="80" y1="180" y2="180"/><line style="stroke:#181818;stroke-width:0.5;" x1="18" x2="80" y1="188" y2="188"/><text fill="#000000" font-family="sans-serif" font-size="14" lengthAdjust="spacing" textLength="52" x="23" y="204.9951">speak()</text><text fill="#000000" font-family="sans-serif" font-size="14" lengthAdjust="spacing" textLength="45" x="23" y="221.292">swim()</text><text fill="#000000" font-family="sans-serif" font-size="14" lengthAdjust="spacing" textLength="45" x="23" y="237.5889">fetch()</text></g><!--MD5=[a2e111f229e751eaf74a5b0151226526]
class Bulldog--><g id="elem_Bulldog"><rect fill="#F1F1F1" height="64.2969" id="Bulldog" rx="2.5" ry="2.5" style="stroke:#181818;stroke-width:0.5;" width="84" x="7" y="305"/><ellipse cx="22" cy="321" fill="#ADD1B2" rx="11" ry="11" style="stroke:#181818;stroke-width:1.0;"/><path d="M24.9688,326.6406 Q24.3906,326.9375 23.75,327.0781 Q23.1094,327.2344 22.4063,327.2344 Q19.9063,327.2344 18.5781,325.5938 Q17.2656,323.9375 17.2656,320.8125 Q17.2656,317.6875 18.5781,316.0313 Q19.9063,314.375 22.4063,314.375 Q23.1094,314.375 23.75,314.5313 Q24.4063,314.6875 24.9688,314.9844 L24.9688,317.7031 Q24.3438,317.125 23.75,316.8594 Q23.1563,316.5781 22.5313,316.5781 Q21.1875,316.5781 20.5,317.6563 Q19.8125,318.7188 19.8125,320.8125 Q19.8125,322.9063 20.5,323.9844 Q21.1875,325.0469 22.5313,325.0469 Q23.1563,325.0469 23.75,324.7813 Q24.3438,324.5 24.9688,323.9219 L24.9688,326.6406 Z " fill="#000000"/><text fill="#000000" font-family="sans-serif" font-size="14" lengthAdjust="spacing" textLength="52" x="36" y="325.8467">Bulldog</text><line style="stroke:#181818;stroke-width:0.5;" x1="8" x2="90" y1="337" y2="337"/><line style="stroke:#181818;stroke-width:0.5;" x1="8" x2="90" y1="345" y2="345"/><text fill="#000000" font-family="sans-serif" font-size="14" lengthAdjust="spacing" textLength="45" x="13" y="361.9951">swim()</text></g><!--MD5=[8d10b9619f233caeee54837354dd5717]
class Cat--><g id="elem_Cat"><rect fill="#F1F1F1" height="64.2969" id="Cat" rx="2.5" ry="2.5" style="stroke:#181818;stroke-width:0.5;" width="64" x="116" y="164.5"/><ellipse cx="135.05" cy="180.5" fill="#ADD1B2" rx="11" ry="11" style="stroke:#181818;stroke-width:1.0;"/><path d="M138.0188,186.1406 Q137.4406,186.4375 136.8,186.5781 Q136.1594,186.7344 135.4563,186.7344 Q132.9563,186.7344 131.6281,185.0938 Q130.3156,183.4375 130.3156,180.3125 Q130.3156,177.1875 131.6281,175.5313 Q132.9563,173.875 135.4563,173.875 Q136.1594,173.875 136.8,174.0313 Q137.4563,174.1875 138.0188,174.4844 L138.0188,177.2031 Q137.3938,176.625 136.8,176.3594 Q136.2063,176.0781 135.5813,176.0781 Q134.2375,176.0781 133.55,177.1563 Q132.8625,178.2188 132.8625,180.3125 Q132.8625,182.4063 133.55,183.4844 Q134.2375,184.5469 135.5813,184.5469 Q136.2063,184.5469 136.8,184.2813 Q137.3938,184 138.0188,183.4219 L138.0188,186.1406 Z " fill="#000000"/><text fill="#000000" font-family="sans-serif" font-size="14" lengthAdjust="spacing" textLength="23" x="149.95" y="185.3467">Cat</text><line style="stroke:#181818;stroke-width:0.5;" x1="117" x2="179" y1="196.5" y2="196.5"/><line style="stroke:#181818;stroke-width:0.5;" x1="117" x2="179" y1="204.5" y2="204.5"/><text fill="#000000" font-family="sans-serif" font-size="14" lengthAdjust="spacing" textLength="52" x="122" y="221.4951">speak()</text></g><!--MD5=[5037e5108ae860e34ac250b7d2b84c09]
reverse link Animal to Dog--><g id="link_Animal_Dog"><path codeLine="4" d="M78.4,107.3 C73.91,120.76 69.2,134.91 64.89,147.84 " fill="none" id="Animal-backto-Dog" style="stroke:#181818;stroke-width:1.0;"/><polygon fill="none" points="71.77,105.04,84.74,88.28,85.06,109.47,71.77,105.04" style="stroke:#181818;stroke-width:1.0;"/></g><!--MD5=[8636451d242e0659c6889b97a0f8ce8a]
reverse link Dog to Bulldog--><g id="link_Dog_Bulldog"><path codeLine="10" d="M49,265.64 C49,279.34 49,293.1 49,304.77 " fill="none" id="Dog-backto-Bulldog" style="stroke:#181818;stroke-width:1.0;"/><polygon fill="none" points="42,265.16,49,245.16,56,265.16,42,265.16" style="stroke:#181818;stroke-width:1.0;"/></g><!--MD5=[29afdbb58cca2b953b6b88505d3bed3f]
reverse link Animal to Cat--><g id="link_Animal_Cat"><path codeLine="14" d="M118.02,107.36 C124.61,126.74 131.69,147.55 137.31,164.07 " fill="none" id="Animal-backto-Cat" style="stroke:#181818;stroke-width:1.0;"/><polygon fill="none" points="111.34,109.47,111.53,88.28,124.6,104.96,111.34,109.47" style="stroke:#181818;stroke-width:1.0;"/></g><!--MD5=[e503a442e53551e962f80fce4a721bb0]
@startuml
  Animal : run()
  Animal : jump()

  Animal <|- - Dog

  Dog : speak()
  Dog : swim()
  Dog : fetch()

  Dog <|- - Bulldog

  Bulldog : swim()

  Animal <|- - Cat

  Cat : speak()
@enduml

PlantUML version 1.2022.4(Sat Apr 09 13:29:17 UTC 2022)
(GPL source distribution)
Java Runtime: OpenJDK Runtime Environment
JVM: OpenJDK 64-Bit Server VM
Default Encoding: UTF-8
Language: en
Country: null
--></g></svg>